<svg data-v-423bf9ae="" xmlns="http://www.w3.org/2000/svg" viewBox="0 0 201.29598611655004 60" class="font"><!----><!----><!----><g data-v-423bf9ae="" id="c2db2a11-5a4c-47f7-b300-5a388007a2a2" fill="#000000" transform="matrix(3.5026271418284693,0,0,3.5026271418284693,-3.012258051282245,9.5367431640625e-7)"><path d="M6.25 13.02C9.24 13.02 11.64 10.61 11.64 7.63C11.64 4.65 9.24 2.24 6.25 2.24C3.27 2.24 0.86 4.65 0.86 7.63C0.86 10.61 3.27 13.02 6.25 13.02ZM6.25 11.90C3.89 11.90 1.98 10.01 1.98 7.63C1.98 5.25 3.89 3.36 6.25 3.36C8.63 3.36 10.52 5.25 10.52 7.63C10.52 10.01 8.63 11.90 6.25 11.90ZM16.57 5.74C15.93 5.74 15.33 6.00 14.88 6.44L14.88 5.88L13.79 5.88L13.79 12.88L14.88 12.88L14.88 8.42C14.88 7.53 15.59 6.83 16.49 6.83C17.38 6.83 18.08 7.53 18.08 8.42L18.08 12.88L19.16 12.88L19.16 8.42C19.16 6.93 17.92 5.74 16.57 5.74ZM21.63 12.88L22.72 12.88L22.72 0L21.63 0ZM29.77 5.88L27.60 11.62L25.36 5.88L24.15 5.88L27.02 12.93L25.34 17.08L26.50 17.08L27.98 13.41L30.99 5.88ZM32.43 12.88L35.30 12.88C38.19 12.88 40.55 10.54 40.55 7.63C40.55 4.72 38.19 2.38 35.30 2.38L32.43 2.38ZM33.53 11.76L33.53 3.50L35.28 3.50C37.61 3.50 39.43 5.27 39.43 7.63C39.43 9.99 37.61 11.76 35.28 11.76ZM45.83 13.02C47.85 13.02 49.47 11.39 49.47 9.38C49.47 7.37 47.85 5.74 45.83 5.74C43.82 5.74 42.19 7.37 42.19 9.38C42.19 11.39 43.82 13.02 45.83 13.02ZM45.83 11.94C44.42 11.94 43.28 10.80 43.28 9.38C43.28 7.96 44.42 6.83 45.83 6.83C47.23 6.83 48.39 7.96 48.39 9.38C48.39 10.80 47.23 11.94 45.83 11.94ZM57.23 5.88L57.23 6.75C56.58 6.13 55.67 5.74 54.69 5.74C52.68 5.74 51.05 7.35 51.05 9.38C51.05 11.39 52.68 13.02 54.69 13.02C55.69 13.02 56.58 12.62 57.24 11.97L57.24 13.49C57.24 14.89 56.09 16.05 54.69 16.05C53.55 16.05 52.59 15.30 52.26 14.28L51.26 14.72C51.77 16.14 53.11 17.13 54.69 17.13C56.70 17.13 58.33 15.51 58.33 13.49L58.33 5.88ZM54.69 11.94C53.27 11.94 52.13 10.78 52.13 9.38C52.13 7.96 53.27 6.83 54.69 6.83C56.09 6.83 57.24 7.96 57.24 9.38C57.24 10.78 56.09 11.94 54.69 11.94Z"></path></g><!----><!----></svg>