<?xml version="1.0" encoding="UTF-8" standalone="no"?>
<!DOCTYPE svg PUBLIC "-//W3C//DTD SVG 1.1//EN" "http://www.w3.org/Graphics/SVG/1.1/DTD/svg11.dtd">
<svg width="100%" height="100%" viewBox="0 0 253 32" version="1.1" xmlns="http://www.w3.org/2000/svg" xmlns:xlink="http://www.w3.org/1999/xlink" xml:space="preserve" xmlns:serif="http://www.serif.com/" style="fill-rule:evenodd;clip-rule:evenodd;stroke-linejoin:round;stroke-miterlimit:1.41421;">
    <g transform="matrix(0.715323,0,0,0.715323,37.047,3.44007)">
        <g id="Tiefe">
            <path d="M242.1,32.9C238.433,33.084 234.848,31.744 232.2,29.2C230.553,27.757 229.137,26.071 228,24.2C226.9,22.1 226.7,22 223.9,22L220.9,22C220.793,22.007 220.707,22.093 220.7,22.2L220.7,28.7C220.7,30.2 221.3,30.6 223.6,30.6L225.7,30.6C225.7,31.1 225.7,31.7 225.5,31.9C225.253,32.117 224.928,32.225 224.6,32.2L210.9,32.2C210.849,31.768 210.849,31.332 210.9,30.9C214.6,30.6 215.7,30.1 215.7,27.3L215.7,6.9C215.7,5 214.9,4.7 213.1,4.7L211.1,4.7C211,4.2 211,3.8 211.2,3.6C211.642,3.212 212.212,2.998 212.8,3C214.9,2.8 217.5,2.8 223.7,2.8C231.8,2.8 236.7,6.5 236.7,12.7C236.7,16.3 234.6,19.2 230.9,20.8C230.845,20.8 230.8,20.845 230.8,20.9C230.8,21 230.8,21 230.9,21.1C230.9,21.1 234.2,24.2 235.9,25.5C241.7,30.1 243.7,30.6 247.5,30.6C247.601,30.978 247.527,31.382 247.3,31.7C246.5,32.5 244.8,32.9 242.1,32.9ZM221,5C220.893,5.007 220.807,5.093 220.8,5.2L220.8,19.7C220.807,19.807 220.893,19.893 221,19.9L223.1,19.9C227.2,19.9 231.2,19.4 231.2,13C231.2,7.6 228.3,5 222.5,5L221,5ZM106.8,8.3C106.8,8.2 106.7,8.2 106.6,8.2C106.493,8.207 106.407,8.293 106.4,8.4L105,28.2C104.824,28.782 104.936,29.414 105.3,29.9C105.8,30.4 106.9,30.6 109.8,30.6L112,30.6C112.1,31.3 112.1,31.7 111.9,31.9C111.663,32.134 111.33,32.244 111,32.2L96.7,32.2C96.6,31.772 96.6,31.328 96.7,30.9C101.4,30.6 102,29.7 102.1,27.7L103.9,6.9C103.9,6.4 104,5.9 103.6,5.5C103.1,5 102,4.7 99.3,4.6C99.199,4.222 99.273,3.818 99.5,3.5C99.914,3.142 100.454,2.962 101,3L109.8,3L120.8,24.1C120.8,24.2 120.9,24.2 121,24.2C121.1,24.2 121.1,24.2 121.2,24.1L131.3,3L141.5,3C141.6,3.428 141.6,3.872 141.5,4.3C139.2,4.5 138,4.8 137.5,5.4C137.1,5.8 137.2,6.3 137.2,6.8L139.3,28.4C139.4,30 140.4,30.1 143.6,30.5C143.717,30.975 143.645,31.477 143.4,31.9C143.163,32.134 142.83,32.244 142.5,32.2L127.1,32.2C127,31.772 127,31.328 127.1,30.9L129.3,30.8C131.4,30.7 132.6,30.5 133.2,29.8C133.7,29.3 133.6,28.5 133.6,27.7L131.6,8.4C131.593,8.293 131.507,8.207 131.4,8.2C131.3,8.2 131.3,8.2 131.2,8.3L120.6,30.6C119.9,32.1 119.5,32.3 118.7,32.3L106.8,8.3ZM178.3,32.2C178.2,31.772 178.2,31.328 178.3,30.9C182.9,30.6 183.9,30.3 183.9,27.2L183.9,6.8C183.9,5 183.3,4.7 181.3,4.7L179.4,4.7C179.3,4.1 179.4,3.8 179.6,3.6C180.061,3.264 180.635,3.121 181.2,3.2L202,3.2C202.1,5 202.4,7 202.7,9C202.807,9.475 202.735,9.974 202.5,10.4C202.238,10.668 201.875,10.813 201.5,10.8L201.3,10.8L200.8,8.9C200,6.2 199.1,5.4 196.5,5.4L189.4,5.4C189.293,5.407 189.207,5.493 189.2,5.6L189.2,17C189.207,17.107 189.293,17.193 189.4,17.2L194,17.2C195.5,17.2 195.8,16.6 195.9,15.4L196.2,13.3L196.6,13.3C196.881,13.277 197.162,13.348 197.4,13.5C197.649,13.847 197.723,14.291 197.6,14.7C197.5,17.5 197.5,20.4 197.6,23.3C197.211,23.433 196.789,23.433 196.4,23.3C195.8,20 195.3,19.4 193.9,19.4L189.3,19.4C189.193,19.407 189.107,19.493 189.1,19.6L189.1,27.4C189.1,29.1 189.6,29.9 192.7,29.9L196.5,29.9C199.8,29.9 200.3,29.7 202.2,25.6L203.4,23C204,23 204.3,23.1 204.5,23.4C204.703,23.774 204.703,24.226 204.5,24.6C203.598,27.158 202.83,29.762 202.2,32.4L178.3,32.2ZM150.1,32.2C150,31.772 150,31.328 150.1,30.9C154.2,30.6 155.4,30.1 155.4,27L155.4,6.8C155.4,5.1 154.7,4.7 152.8,4.7L150.8,4.7C150.7,4.2 150.7,3.8 150.9,3.6C151.335,3.209 151.92,3.026 152.5,3.1L166.1,3.1C166.2,3.528 166.2,3.972 166.1,4.4C161.6,4.7 160.5,5.1 160.5,8.1L160.5,27.7C160.5,29.5 161.7,29.8 162.7,29.8L165.5,29.8C168.8,29.8 169.3,29.6 171.2,25.5L172.4,22.9C173,22.9 173.4,23 173.5,23.3C173.703,23.674 173.703,24.126 173.5,24.5C172.552,27.043 171.784,29.649 171.2,32.3L150.1,32.3L150.1,32.2ZM76.8,32.2C76.7,31.739 76.7,31.261 76.8,30.8C80.2,30.2 81.2,29.8 81.2,27.8L81.2,6.7C81.2,4.9 80.6,4.6 78.6,4.6L76.6,4.6C76.5,4.1 76.5,3.7 76.7,3.5C77.135,3.109 77.72,2.926 78.3,3L90.8,3C90.9,3.428 90.9,3.872 90.8,4.3C87,4.6 86.3,5.5 86.3,7.4L86.3,28.4C86.3,30.1 87,30.5 88.8,30.5L91,30.5C91.109,30.926 91.109,31.374 91,31.8C90.753,32.017 90.428,32.125 90.1,32.1L76.8,32.2ZM58.2,32.2C58.1,31.772 58.1,31.328 58.2,30.9C61.5,30.8 62.7,30.6 63.1,30C63.25,29.649 63.25,29.251 63.1,28.9L60.3,22.2C60.3,22.1 60.2,22.1 60.1,22.1L48.7,22.1C48.624,22.11 48.554,22.146 48.5,22.2L46.7,27C46.1,28.6 45.9,29.4 46.2,30C46.5,30.4 47.1,30.6 48.3,30.6L51.9,30.6C52.032,31.03 51.997,31.495 51.8,31.9C51.593,32.116 51.298,32.227 51,32.2L38.5,32.2C38.4,31.772 38.4,31.328 38.5,30.9C41.9,30.5 42.3,30.1 43.5,27.3L52.2,6.6C53.7,3.2 54.2,2.6 56.1,2.6L57.7,2.6C57.93,3.709 58.3,4.784 58.8,5.8L69,29.1C69.5,30.3 70.1,30.8 72.4,30.8L73.3,30.8C73.4,31.4 73.4,31.9 73.2,32.1C72.963,32.334 72.63,32.444 72.3,32.4L58.2,32.2ZM54.2,8.2C54.124,8.21 54.054,8.246 54,8.3L49.4,19.8L49.4,20C49.4,20.1 49.5,20.1 49.6,20.1L59,20.1C59.1,20.1 59.1,20.1 59.2,20L59.2,19.8L54.4,8.3C54.346,8.246 54.276,8.21 54.2,8.2ZM2.3,32.2C2.2,31.772 2.2,31.328 2.3,30.9C6.9,30.6 7.9,30.3 7.9,27.2L7.9,6.3C7.9,4.4 7.3,4.1 5.3,4.1L3.3,4.1C3.2,3.5 3.2,3.1 3.4,2.9C3.8,2.4 5.3,2.2 9.3,2.2L18.3,2.2C30.3,2.2 36.3,7.2 36.3,17.2C36.3,27 30.2,32.2 18.7,32.2L2.3,32.2ZM13.2,4.4C13.093,4.407 13.007,4.493 13,4.6L13,26.8C13,29.7 14.2,30.1 18.3,30.1C29.4,30.1 30.9,24 30.9,18C30.9,9.2 26.2,4.4 17.8,4.4L13.2,4.4Z" style="fill:rgb(51,51,51);fill-rule:nonzero;"/>
        </g>
    </g>
</svg>
