<?xml version="1.0" encoding="UTF-8" standalone="no"?>
<!DOCTYPE svg PUBLIC "-//W3C//DTD SVG 1.1//EN" "http://www.w3.org/Graphics/SVG/1.1/DTD/svg11.dtd">
<svg width="100%" height="100%" viewBox="0 0 162 32" version="1.1" xmlns="http://www.w3.org/2000/svg" xmlns:xlink="http://www.w3.org/1999/xlink" xml:space="preserve" xmlns:serif="http://www.serif.com/" style="fill-rule:evenodd;clip-rule:evenodd;stroke-linejoin:round;stroke-miterlimit:1.41421;">
    <g id="_94089960" transform="matrix(1,0,0,1,-288.762,-114.254)">
        <g id="_91331920" transform="matrix(0.164385,0,0,0.164385,294.348,104.947)">
            <path d="M197.335,99.945C213.249,110.257 236.176,142.429 242.335,160.192C236.177,178.003 213.25,210.092 197.335,220.429L197.335,99.945Z" style="fill:rgb(51,51,51);fill-rule:nonzero;"/>
        </g>
        <g id="_93038808" transform="matrix(0.164385,0,0,0.164385,294.348,105.05)">
            <path d="M163.279,122.791C171.595,122.791 182.212,126.091 190.541,132.049L190.541,95.793C182.248,90.632 172.141,87.603 160.308,87.603C160.218,87.603 160.128,87.603 160.039,87.603C120.242,87.603 87.495,120.35 87.495,160.147C87.495,199.943 120.242,232.69 160.039,232.69C160.128,232.69 160.218,232.69 160.308,232.69C172.138,232.69 182.248,229.777 190.541,224.59L190.541,188.235C182.212,194.19 171.595,197.592 163.279,197.592C140.706,197.592 124.11,181.099 124.11,160.192C124.11,139.184 140.706,122.791 163.279,122.791ZM702.979,150.481L702.979,224.59L728.353,224.59L728.353,151.934C728.368,141.881 736.632,133.611 746.685,133.589L758.4,133.589L758.4,109.373L745.409,109.337C722.682,109.519 703.858,127.77 702.974,150.481L702.979,150.481ZM815.3,200.293C805.271,200.227 797.048,191.977 797.013,181.948L797.013,133.467L825.065,133.467L825.065,109.235L797.014,109.235L797.014,86.435L771.514,86.435L771.514,183.343C772.46,206.056 791.276,224.29 814.008,224.521L827.018,224.489L827.018,200.289L815.3,200.293ZM510.377,107.08C497.803,107.109 485.881,112.772 477.913,122.5C469.906,112.758 457.943,107.098 445.333,107.085C423.311,107.077 404.882,124.507 403.665,146.495L403.656,224.595L429.213,224.595L429.213,149.664C429.213,139.184 437.075,131.094 447.124,131.094C455.417,131.094 465.186,136.711 465.186,152.638L465.186,224.59L490.627,224.59L490.627,152.567C490.627,137.799 499.92,131.094 508.573,131.094C519.273,131.094 526.587,138.683 526.587,149.664L526.587,224.59L552.032,224.59L552.032,146.558C550.817,124.563 532.406,107.113 510.377,107.08ZM626.81,107.353C593.87,107.353 568.026,133.409 568.026,166.838C568.026,201.738 592.95,226.995 627.276,226.995C640.605,226.995 652.551,222.05 660.095,213.747L660.095,224.58L685.526,224.58L685.526,167.3C685.526,132.5 660.751,107.353 626.81,107.353ZM627.151,202.553C608.07,202.553 592.632,186.591 592.632,167.205C592.632,147.795 608.07,131.881 627.151,131.881C646.097,131.881 661.522,147.795 661.522,167.205C661.522,187.952 647.412,202.55 627.151,202.55L627.151,202.553ZM344.351,155.653C319.7,152.795 314.787,148.383 314.787,141.653C314.787,131.022 330.897,129.64 338.01,129.64C350.031,129.739 361.648,134.038 370.838,141.788L387.047,125.601C380.571,120.247 365.04,107.314 334.219,107.314C303.806,107.314 287.425,125.759 287.425,143.184C287.425,163.796 303.425,175.548 336.386,179.121C350.248,180.642 360.708,182.568 360.708,192.212C360.708,209.978 316.15,208.196 298.259,188.424L280.6,206.213C282.265,208.107 303.012,227.213 334.13,227.213C371.269,227.213 388.103,209.019 388.103,192.013C388.1,170.662 374.23,159.1 344.351,155.654L344.351,155.653Z" style="fill:rgb(51,51,51);fill-rule:nonzero;"/>
        </g>
    </g>
</svg>
